<svg xmlns="http://www.w3.org/2000/svg" viewBox="0 0 64 64">
  <defs>
    <linearGradient id="bgGradient" x1="0%" y1="0%" x2="100%" y2="100%">
      <stop offset="0%" style="stop-color:#0f172a;stop-opacity:1" />
      <stop offset="100%" style="stop-color:#1e293b;stop-opacity:1" />
    </linearGradient>
    <linearGradient id="chartGradient" x1="0%" y1="0%" x2="100%" y2="100%">
      <stop offset="0%" style="stop-color:#10b981;stop-opacity:1" />
      <stop offset="50%" style="stop-color:#06b6d4;stop-opacity:1" />
      <stop offset="100%" style="stop-color:#8b5cf6;stop-opacity:1" />
    </linearGradient>
    <filter id="glow">
      <feGaussianBlur stdDeviation="2" result="coloredBlur"/>
      <feMerge>
        <feMergeNode in="coloredBlur"/>
        <feMergeNode in="SourceGraphic"/>
      </feMerge>
    </filter>
  </defs>
  <rect width="64" height="64" rx="12" fill="url(#bgGradient)"/>
  <g opacity="0.15">
    <line x1="0" y1="16" x2="64" y2="16" stroke="#10b981" stroke-width="0.5"/>
    <line x1="0" y1="32" x2="64" y2="32" stroke="#10b981" stroke-width="0.5"/>
    <line x1="0" y1="48" x2="64" y2="48" stroke="#10b981" stroke-width="0.5"/>
    <line x1="16" y1="0" x2="16" y2="64" stroke="#10b981" stroke-width="0.5"/>
    <line x1="32" y1="0" x2="32" y2="64" stroke="#10b981" stroke-width="0.5"/>
    <line x1="48" y1="0" x2="48" y2="64" stroke="#10b981" stroke-width="0.5"/>
  </g>
  <polyline
    points="8,48 16,36 24,40 32,24 40,32 48,20 56,28"
    fill="none"
    stroke="url(#chartGradient)"
    stroke-width="3"
    stroke-linecap="round"
    stroke-linejoin="round"
    filter="url(#glow)"
  />
  <circle cx="32" cy="24" r="3" fill="#06b6d4" opacity="0.8"/>
  <circle cx="48" cy="20" r="2.5" fill="#10b981" opacity="0.6"/>
  <circle cx="16" cy="36" r="2" fill="#8b5cf6" opacity="0.7"/>
  <path d="M 52 12 L 56 16 L 52 16 Z" fill="#10b981" opacity="0.9"/>
</svg>
